<svg xmlns="http://www.w3.org/2000/svg" viewBox="0 0 480 430">
  <path fill="#97cc19" d="M129.91,17.34c-14.96,6.43-19.25,25.52-8.78,37.99,29.91,35.62,53.4,74.1,65.23,103.66.38-1.01.76-2.02,1.14-3.03,20.55-54.37,36.66-93.41,49.33-121.6C244.02,18.34,232.46.03,214.89,0c-.13,0-.25,0-.38,0-30.05,0-58.65,6.18-84.61,17.34Z"/>
  <path fill="#97cc19" d="M157.8,192.26c-1.78-19.89-27.06-68.11-66.26-114.35-.92-1.08-1.84-2.16-2.76-3.22-9.73-11.26-27.2-11.32-36.9-.04C19.55,112.2,0,161.07,0,214.51c0,57.08,22.3,108.95,58.66,147.39,12.12,12.81,33.42,8.92,40.21-7.36,32.8-78.65,60.13-148.97,58.93-162.29Z"/>
  <path fill="#97cc19" d="M199.52,291.67c52.85-12.97,130.55-17.67,194.16-2.31,11.71,2.83,23.7-3.93,27.02-15.51,5.42-18.85,8.33-38.76,8.33-59.35,0-84.17-48.48-157.01-119.03-192.14-12-5.97-26.55-1.05-32.24,11.09-26.61,56.84-63.56,153.98-94.09,240.59-3.55,10.08,5.47,20.17,15.85,17.62Z"/>
  <path fill="#97cc19" d="M300.06,316.94c-60.62.62-113.62,13.06-129.83,24.73-6.59,4.74-17.27,20.33-30.44,43.03-7.92,13.64-1.07,31.16,14.05,35.62,19.24,5.66,39.6,8.7,60.67,8.7,61.82,0,117.53-26.16,156.67-68,13.6-14.54,5.1-38.24-14.64-40.88-17.34-2.32-36.29-3.42-56.49-3.21Z"/>
  <circle fill="#bd34d0" cx="401.92" cy="128.32" r="72.21"/>
</svg>
